<?xml version="1.0" encoding="utf-8"?>
<!-- Generator: Adobe Illustrator 16.0.0, SVG Export Plug-In . SVG Version: 6.00 Build 0)  -->
<!DOCTYPE svg PUBLIC "-//W3C//DTD SVG 1.1//EN" "http://www.w3.org/Graphics/SVG/1.1/DTD/svg11.dtd">
<svg version="1.1" xmlns="http://www.w3.org/2000/svg" xmlns:xlink="http://www.w3.org/1999/xlink" x="0px" y="0px"
	 width="75.995px" height="39.554px" viewBox="0 0 75.995 39.554" enable-background="new 0 0 75.995 39.554" xml:space="preserve">
<g id="head" display="none">
	<g display="inline">
		<linearGradient id="SVGID_1_" gradientUnits="userSpaceOnUse" x1="37.2681" y1="-159.0464" x2="36.9105" y2="55.0346">
			<stop  offset="0" style="stop-color:#E49A74"/>
			<stop  offset="1" style="stop-color:#D59A73"/>
		</linearGradient>
		<path fill="url(#SVGID_1_)" d="M110.417-10.37c0,41.45-45.389,75.053-70.765,75.053h-5.003c-30.022,0-70.765-33.603-70.765-75.053
			l-4.289-77.914c0-41.451,33.603-75.054,75.054-75.054h5.003c41.451,0,75.054,33.603,75.054,75.054L110.417-10.37z"/>
		<g>
			<path d="M108.935-10.986c-0.271,23.155-14.102,43.416-31.661,57.499C63.637,57.448,47.771,64.274,30.149,62.769
				C8.542,60.921-11.212,44.976-22.879,27.567c-6.864-10.243-11.01-22.191-11.693-34.507c-0.194-3.51-0.294-7.029-0.488-10.54
				c-0.823-14.945-1.646-29.892-2.468-44.836C-38.116-73-39.491-83.953-38.603-94.652c1.936-23.318,15.886-44.298,35.64-56.419
				c18.132-11.126,41.612-13.268,62.043-8.11c21.209,5.354,38.906,20.958,47.895,40.72c5.652,12.429,6.487,25.255,5.754,38.571
				C111.463-56.922,110.2-33.954,108.935-10.986c-0.091,1.638,2.837,3.531,2.963,1.232c1.34-24.342,2.681-48.685,4.021-73.027
				c2.052-37.28-22.526-70.981-58.837-80.148c-19.225-4.854-41.137-2.351-58.651,6.767c-19.102,9.944-32.907,28.357-38.144,49.102
				c-2.997,11.87-1.881,23.477-1.219,35.491c0.853,15.5,1.707,31,2.56,46.501c0.682,12.378,0.682,24.746,4.683,36.631
				c6.607,19.623,22.132,36.78,40.215,46.589c14.172,7.688,30.784,10.869,46.428,6.035c18.575-5.741,35.009-19.617,46.029-35.348
				c7.931-11.321,12.753-24.726,12.916-38.593C111.917-11.382,108.961-13.28,108.935-10.986z"/>
		</g>
	</g>
</g>
<g id="nose" display="none">
</g>
<g id="eyes" display="none">
</g>
<g id="hair" display="none">
</g>
<g id="mouth">
	<g>
		<g>
			<path fill="#F8CEB3" d="M74.915,1.045c0.218,1.193,0.065,2.329-1.139,2.868c-0.881,0.991-2.32,1.748-4.553,2.212
				C59.46,8.143,49.06,6.295,39.329,5.067c-5.069-0.64-9.898-0.993-14.954-0.208c-2.205,0.413-6.683,1.55-11.118,2.055
				c-1.4,0.242-2.807,0.453-4.229,0.592C7.35,7.666,6.065,7.522,5.016,7.12C3,6.903,1.32,6.244,0.379,4.855
				c-0.481,0.951-0.587,1.977,0.176,3.155c0.659,1.022,1.507,1.847,2.467,2.563c1.619,0.219,3.42,0.207,4.619,1.775
				c1.84,2.407,4.552,6.442,6.21,9.748c8.229,9.673,25.803,11.39,37.183,7.246c8.419-3.063,11.977-8.131,16.234-14.973
				c0.693-1.119,1.435-2.125,2.219-3.055C73.6,4.064,77.985,6.676,74.915,1.045z"/>
			<path fill="#9E4E23" d="M74.65,0c0.538,1.69,0.716,3.576-1.425,4.104C72.366,4.313,71.494,4.44,70.62,4.54
				c-2.476,0.588-5.086,0.736-7.653,1.027C57.574,6.176,52.108,6.06,46.688,6c-7.707-0.079-15.749-2.363-23.37-0.872
				c-0.698,0.037-1.395,0.082-2.102,0.136c-4.027,0.92-8.051,1.846-12.188,2.242C7.35,7.666,6.067,7.521,5.016,7.12
				c-1.931-0.209-3.55-0.824-4.511-2.098C1.693,8.19,3.75,9.07,6.781,9.14c5.25,4.507,6.94,12.219,13.53,15.308
				c6.29,2.949,14.236,4.507,21.302,4.257c6.108-0.213,12.598-2.294,17.137-6.052c2.358-1.948,3.629-4.476,4.854-7.074
				c2.091-4.424,4.667-6.841,8.831-9.651c0.044-0.032,0.058-0.074,0.083-0.113c0.612-0.22,1.235-0.428,1.799-0.692
				c0.304-0.018,0.595-0.117,0.815-0.325c0.017-0.02,0.021-0.039,0.039-0.054c0.005-0.003,0.017-0.005,0.017-0.005
				c0.286-0.16,0.426-0.388,0.474-0.632C76.397,2.759,75.851,1.019,74.65,0z M62.144,15.052
				c-3.533,7.469-9.474,11.043-18.335,11.808c-7.039,0.612-15.021-1.053-21.509-3.381c-7.04-2.521-8.922-10.223-14.636-14.323
				C8.18,9.143,8.727,9.113,9.294,9.07c7.693-0.546,14.896-3.548,22.737-3.734c0.061-0.003,0.091-0.053,0.083-0.102
				c6.047,0.544,12.229,1.998,18.069,2.27c5.176,0.237,11.917,0.52,17.8-0.508C65.222,8.922,63.5,12.191,62.144,15.052z"/>
			<path fill="#8B181B" d="M62.144,15.052c-3.533,7.469-9.474,11.043-18.335,11.808c-7.039,0.612-15.021-1.053-21.509-3.381
				c-7.04-2.521-8.922-10.223-14.636-14.323C8.18,9.143,8.727,9.113,9.294,9.07c7.693-0.546,14.896-3.548,22.737-3.734
				c0.061-0.003,0.091-0.053,0.083-0.102c6.047,0.544,12.229,1.998,18.069,2.27c5.176,0.237,11.917,0.52,17.8-0.508
				C65.222,8.922,63.5,12.191,62.144,15.052z"/>
			<path fill="#FFFFFF" d="M60.241,11.735c1.127-1.322,2.15-2.726,3.068-4.186c-4.573,0.333-9.281,0.131-13.126-0.046
				c-5.84-0.271-12.022-1.726-18.069-2.27c0.009,0.049-0.021,0.099-0.083,0.102c-5.951,0.143-11.535,1.901-17.245,2.98
				c1.535,3.022,3.226,5.36,7.823,6.299c4.39,0.892,8.728,1.891,13.241,2.137c5.488,0.297,10.794-0.123,15.997-1.133
				C54.908,14.752,57.856,13.587,60.241,11.735z"/>
			<path opacity="0.6" fill="#B8AA97" d="M55.789,11.215c-0.641,1.655-1.704,3.004-3.03,4.135c2.735-0.836,5.337-1.948,7.482-3.614
				c1.127-1.322,2.15-2.726,3.068-4.186c-4.573,0.333-9.281,0.131-13.126-0.046c-5.84-0.271-12.022-1.726-18.069-2.27
				c0.009,0.049-0.021,0.099-0.083,0.102c-5.951,0.143-11.535,1.901-17.245,2.98c0.135,0.273,0.278,0.53,0.419,0.789
				c6.086-0.483,12.006-1.87,18.192-1.583C40.65,7.865,47.79,8.978,54.961,9.967C55.624,10.058,56.015,10.636,55.789,11.215z"/>
			<path fill="#F3785B" d="M41.352,21.051c-6.875-0.739-12.407,0.333-17.882,2.822c6.272,2.11,13.715,3.56,20.339,2.986
				c3.196-0.273,5.991-0.932,8.45-1.987C48.982,22.942,45.423,21.493,41.352,21.051z"/>
		</g>
		<path fill="#9E4E23" d="M26.035,35.553c5.719,5.144,15.846,5.262,21.815,0.731c0.213-0.162,0.373-0.426,0.442-0.682
			C40.693,37.334,33.202,38.087,26.035,35.553z"/>
	</g>
</g>
</svg>
