<?xml version="1.0" encoding="utf-8"?>
<!-- Generator: Adobe Illustrator 16.0.0, SVG Export Plug-In . SVG Version: 6.00 Build 0)  -->
<!DOCTYPE svg PUBLIC "-//W3C//DTD SVG 1.1//EN" "http://www.w3.org/Graphics/SVG/1.1/DTD/svg11.dtd">
<svg version="1.1" xmlns="http://www.w3.org/2000/svg" xmlns:xlink="http://www.w3.org/1999/xlink" x="0px" y="0px" width="21.71px"
	 height="33.684px" viewBox="0 0 21.71 33.684" enable-background="new 0 0 21.71 33.684" xml:space="preserve">
<g id="head" display="none">
	<g display="inline">
		<linearGradient id="SVGID_1_" gradientUnits="userSpaceOnUse" x1="11.0684" y1="-120.105" x2="10.7108" y2="93.976">
			<stop  offset="0" style="stop-color:#E49A74"/>
			<stop  offset="1" style="stop-color:#D59A73"/>
		</linearGradient>
		<path fill="url(#SVGID_1_)" d="M84.217,28.571c0,41.45-45.389,75.053-70.765,75.053H8.449c-30.022,0-70.765-33.603-70.765-75.053
			l-4.289-77.914c0-41.451,33.603-75.054,75.054-75.054h5.003c41.451,0,75.054,33.603,75.054,75.054L84.217,28.571z"/>
		<g>
			<path d="M82.735,27.955C82.464,51.11,68.634,71.371,51.074,85.454C37.438,96.39,21.571,103.216,3.95,101.71
				c-21.607-1.848-41.361-17.793-53.028-35.201c-6.864-10.243-11.01-22.191-11.693-34.507c-0.194-3.51-0.294-7.029-0.488-10.54
				c-0.823-14.945-1.646-29.892-2.468-44.836c-0.588-10.684-1.963-21.637-1.075-32.336c1.936-23.318,15.886-44.298,35.64-56.419
				c18.132-11.126,41.612-13.268,62.043-8.11c21.209,5.354,38.906,20.958,47.895,40.72c5.652,12.429,6.487,25.255,5.754,38.571
				C85.264-17.981,84,4.987,82.735,27.955c-0.091,1.638,2.837,3.531,2.963,1.232c1.34-24.342,2.681-48.685,4.021-73.027
				c2.052-37.28-22.526-70.981-58.837-80.148c-19.225-4.854-41.137-2.351-58.651,6.767c-19.102,9.944-32.907,28.357-38.144,49.102
				c-2.997,11.87-1.881,23.477-1.219,35.491c0.853,15.5,1.707,31,2.56,46.501c0.682,12.378,0.682,24.746,4.683,36.631
				c6.607,19.623,22.132,36.78,40.215,46.589c14.172,7.688,30.784,10.869,46.428,6.035c18.575-5.741,35.009-19.617,46.029-35.348
				c7.931-11.321,12.753-24.726,12.916-38.593C85.718,27.56,82.762,25.661,82.735,27.955z"/>
		</g>
	</g>
</g>
<g id="nose">
	<g>
		<path fill="#ECB89A" d="M15.557,32.549c2.273-0.666,4.25-1.849,6.139-3.171c0.006-0.01,0.007-0.015,0.015-0.019
			c-3.289,0.49-8.213,1.062-11.525,0.823c-2.988-0.216-3.903-0.808-6.748-1.612c-0.61-0.172-1.225-0.312-1.84-0.444
			c0.318,0.398,0.619,0.826,0.902,1.257C6.447,31.824,10.956,33.896,15.557,32.549z"/>
		<path fill="#9E5324" d="M9.16,30.938c3.795,0.121,7.343-0.418,10.982-1.046c0.036-0.035,0.064-0.065,0.104-0.103
			c0.299-0.303-6.514,0.166-9.657,0.363c-2.919,0.183-5.635-1.531-8.474-2.08c1.09-6.699,5-23.694,5.968-28.073
			C8.078,0.013,8.066,0.023,8.062,0.035C6.586,2.521,6.09,5.044,5.356,7.785C4.767,9.97,0.881,24.698,0.05,27.143
			c-0.393,1.16,1.654,1.936,1.828,1.883c3.933,3.301,4.983,3.853,8.362,4.32c2.767,0.39,4.691,1.001,8.163-1.862
			c-1.854,0.901-3.077,2.006-9.292,0.734c-0.5-0.101-4.096-1.608-4.018-1.965C5.157,29.983,8.768,30.922,9.16,30.938z"/>
	</g>
</g>
<g id="eyes" display="none">
	<g>
		<g display="inline">
		</g>
	</g>
	<g display="inline">
		<g>
			<g>
				<path fill="#FFFFFF" d="M-0.487,0.896c0,0-18.904,12.138-45.374-0.86c0,0-6.13-44.306,24.068-44.306
					C8.405-44.27-0.487,0.896-0.487,0.896z"/>
			</g>
		</g>
	</g>
</g>
<g id="hair" display="none">
</g>
<g id="mouth" display="none">
</g>
</svg>
